<svg xmlns="http://www.w3.org/2000/svg" viewBox="0 0 576 512">
  <path fill="#FF0000" d="M549.655 124.083c-6.281-23.65-24.812-42.26-48.373-48.53C456.34 64 288 64 288 64s-168.34 0-213.282 11.553c-23.561 6.27-42.092 24.88-48.373 48.53C16.01 168.46 16 256.001 16 256.001s0.01 87.55 10.345 131.918c6.281 23.65 24.812 42.26 48.373 48.53C119.66 448.001 288 448.001 288 448.001s168.34 0 213.282-11.553c23.561-6.27 42.092-24.88 48.373-48.53C560 343.551 560 256.001 560 256.001s0-87.54-10.345-131.918zM232 336.001v-160l142.857 80-142.857 80z"/>
</svg>
